<svg xmlns="http://www.w3.org/2000/svg" xmlns:svgjs="http://svgjs.com/svgjs" xmlns:xlink="http://www.w3.org/1999/xlink" width="288" height="288"><svg xmlns="http://www.w3.org/2000/svg" width="288" height="288" fill="currentColor" class="mercado-match" data-supported-dps="24x24" viewBox="0 0 24 24"><path fill="#388fea" d="M19 4H5a3 3 0 00-3 3v10a3 3 0 003 3h14a3 3 0 003-3V7a3 3 0 00-3-3zm1 13a1 1 0 01-.29.71L16 14l-2 2-6-6-4 4V7a1 1 0 011-1h14a1 1 0 011 1zm-2-7a2 2 0 11-2-2 2 2 0 012 2z" class="color000 svgShape"/></svg></svg>